<?xml version="1.0" encoding="UTF-8" standalone="no"?>
<svg
   xmlns:dc="http://purl.org/dc/elements/1.1/"
   xmlns:cc="http://creativecommons.org/ns#"
   xmlns:rdf="http://www.w3.org/1999/02/22-rdf-syntax-ns#"
   xmlns:svg="http://www.w3.org/2000/svg"
   xmlns="http://www.w3.org/2000/svg"
   viewBox="0 0 568.38135 200.084"
   height="200.084"
   width="568.38135"
   xml:space="preserve"
   id="svg2"
   version="1.1"><metadata
     id="metadata8"><rdf:RDF><cc:Work
         rdf:about=""><dc:format>image/svg+xml</dc:format><dc:type
           rdf:resource="http://purl.org/dc/dcmitype/StillImage" /></cc:Work></rdf:RDF></metadata><defs
     id="defs6"><clipPath
       id="clipPath58"
       clipPathUnits="userSpaceOnUse"><path
         id="path56"
         d="M 0,150.063 H 426.286 V 0 H 0 Z" /></clipPath><clipPath
       id="clipPath70"
       clipPathUnits="userSpaceOnUse"><path
         id="path68"
         d="m 222.362,88.061 13.184,-7.551 19.46,15.76 1.518,34.756 -37.684,1.41 z" /></clipPath><clipPath
       id="clipPath82"
       clipPathUnits="userSpaceOnUse"><path
         id="path80"
         d="M 0,150.063 H 426.286 V 0 H 0 Z" /></clipPath></defs><g
     transform="matrix(1.3333333,0,0,-1.3333333,0,200.084)"
     id="g10"><g
       transform="translate(274.405,88.0065)"
       id="g12"><path
         id="path14"
         style="fill:none;stroke:#ffffff;stroke-width:3;stroke-linecap:butt;stroke-linejoin:miter;stroke-miterlimit:10;stroke-dasharray:none;stroke-opacity:1"
         d="M 0,0 H 22.82" /></g><g
       transform="translate(295.573,100.6158)"
       id="g16"><path
         id="path18"
         style="fill:#ffffff;fill-opacity:1;fill-rule:nonzero;stroke:none"
         d="M 0,0 H -7.014 L 6.724,-26.41 h 7.034 z" /></g><g
       transform="translate(275.5964,100.6158)"
       id="g20"><path
         id="path22"
         style="fill:#ffffff;fill-opacity:1;fill-rule:nonzero;stroke:none"
         d="m 0,0 -13.758,-26.41 h 7.035 L 7.015,0 Z" /></g><g
       transform="translate(60.719,96.9542)"
       id="g24"><path
         id="path26"
         style="fill:none;stroke:#ffffff;stroke-width:6;stroke-linecap:butt;stroke-linejoin:miter;stroke-miterlimit:10;stroke-dasharray:none;stroke-opacity:1"
         d="M 0,0 H 31.949" /></g><g
       transform="translate(94.7683,76.9117)"
       id="g28"><path
         id="path30"
         style="fill:none;stroke:#ffffff;stroke-width:6;stroke-linecap:butt;stroke-linejoin:miter;stroke-miterlimit:10;stroke-dasharray:none;stroke-opacity:1"
         d="M 0,0 H -36.976" /></g><g
       transform="translate(94.7683,115.0148)"
       id="g32"><path
         id="path34"
         style="fill:none;stroke:#ffffff;stroke-width:6;stroke-linecap:butt;stroke-linejoin:miter;stroke-miterlimit:10;stroke-dasharray:none;stroke-opacity:1"
         d="M 0,0 H -7.327" /></g><path
       id="path36"
       style="fill:#ffffff;fill-opacity:1;fill-rule:nonzero;stroke:none"
       d="m 63.987,74.17 h -6.194 v 25.784 h 6.194 z" /><g
       transform="translate(357.8991,95.3385)"
       id="g38"><path
         id="path40"
         style="fill:none;stroke:#ffffff;stroke-width:6;stroke-linecap:butt;stroke-linejoin:miter;stroke-miterlimit:10;stroke-dasharray:none;stroke-opacity:1"
         d="M 0,0 H 31.948" /></g><g
       transform="translate(391.948,115.3702)"
       id="g42"><path
         id="path44"
         style="fill:none;stroke:#ffffff;stroke-width:6;stroke-linecap:butt;stroke-linejoin:miter;stroke-miterlimit:10;stroke-dasharray:none;stroke-opacity:1"
         d="M 0,0 H -36.976" /></g><g
       transform="translate(391.948,77.2887)"
       id="g46"><path
         id="path48"
         style="fill:none;stroke:#ffffff;stroke-width:6;stroke-linecap:butt;stroke-linejoin:miter;stroke-miterlimit:10;stroke-dasharray:none;stroke-opacity:1"
         d="M 0,0 H -7.326" /></g><path
       id="path50"
       style="fill:#ffffff;fill-opacity:1;fill-rule:nonzero;stroke:none"
       d="m 361.167,118.134 h -6.194 V 92.349 h 6.194 z" /><g
       id="g52"><g
         clip-path="url(#clipPath58)"
         id="g54"><g
           transform="translate(209.5871,68.3854)"
           id="g60"><path
             id="path62"
             style="fill:none;stroke:#ffffff;stroke-width:1;stroke-linecap:butt;stroke-linejoin:miter;stroke-miterlimit:10;stroke-dasharray:none;stroke-opacity:1"
             d="m 0,0 c 0,-13.574 11.004,-24.578 24.579,-24.578 13.574,0 24.578,11.004 24.578,24.578 0,6.788 -2.752,12.933 -7.2,17.381" /></g></g></g><g
       id="g64"><g
         clip-path="url(#clipPath70)"
         id="g66"><g
           transform="translate(237.8034,111.5113)"
           id="g72"><path
             id="path74"
             style="fill:#ffffff;fill-opacity:1;fill-rule:nonzero;stroke:none"
             d="m 0,0 c -3.95,0 -8.678,-2.202 -8.678,-6.994 0,-2.428 1.652,-4.501 5.796,-5.731 l 11.56,-3.4 c 5.375,-1.684 9.81,-5.86 9.681,-12.239 -0.194,-9.099 -9.713,-14.538 -17.97,-14.182 -8.257,0.291 -14.312,5.277 -16.643,8.354 l 4.177,3.755 c 1.942,-2.363 6.411,-6.281 12.466,-6.476 5.439,-0.226 12.337,2.882 12.337,8.84 0,3.109 -2.203,5.537 -6.056,6.67 l -11.624,3.4 c -6.346,1.846 -9.358,6.346 -9.358,11.009 0,7.415 6.347,12.628 14.474,12.628 5.958,0 13.34,-3.692 15.412,-10.426 L 10.491,-7.059 C 7.998,-0.842 2.364,0 0,0" /></g></g></g><g
       id="g76"><g
         clip-path="url(#clipPath82)"
         id="g78"><g
           transform="translate(341.4958,109.2867)"
           id="g84"><path
             id="path86"
             style="fill:none;stroke:#ffffff;stroke-width:3;stroke-linecap:butt;stroke-linejoin:miter;stroke-miterlimit:4;stroke-dasharray:none;stroke-opacity:1"
             d="M 0,0 8.566,8.566" /></g><g
           transform="translate(301.3425,32.3346)"
           id="g88"><path
             id="path90"
             style="fill:none;stroke:#ffffff;stroke-width:6;stroke-linecap:butt;stroke-linejoin:miter;stroke-miterlimit:4;stroke-dasharray:none;stroke-opacity:1"
             d="m 0,0 c 0,-13.135 10.648,-23.783 23.783,-23.783 13.135,0 23.783,10.648 23.783,23.783 0,6.568 -2.663,12.516 -6.967,16.819 l -21.187,21.187 6.08,6.659 c 10.236,0 18.532,8.297 18.532,18.532 0,10.235 -8.296,18.532 -18.532,18.532 -10.235,0 -18.532,-8.297 -18.532,-18.532 0,-2.874 0.654,-5.594 1.821,-8.022" /></g><path
           id="path92"
           style="fill:transparent;fill-opacity:1;fill-rule:nonzero;stroke:none"
           d="m 327.373,98.564 h -26.478 v 20.788 h 26.478 z" /><path
           id="path94"
           style="fill:#ffffff;fill-opacity:1;fill-rule:nonzero;stroke:none"
           d="m 206.896,74.239 h 5.793 v 43.8 h -5.793 z" /><g
           transform="translate(169.7463,50.461)"
           id="g96"><path
             id="path98"
             style="fill:#ffffff;fill-opacity:1;fill-rule:nonzero;stroke:none"
             d="m 0,0 -4.243,-4.243 -21.541,21.542 4.242,4.243 z" /></g><g
           transform="translate(165.5461,46.2604)"
           id="g100"><path
             id="path102"
             style="fill:#ffffff;fill-opacity:1;fill-rule:nonzero;stroke:none"
             d="m 0,0 -4.243,4.243 37.392,37.391 4.243,-4.242 z" /></g><g
           transform="translate(138.0007,118.0201)"
           id="g104"><path
             id="path106"
             style="fill:none;stroke:#ffffff;stroke-width:6;stroke-linecap:butt;stroke-linejoin:miter;stroke-miterlimit:10;stroke-dasharray:none;stroke-opacity:1"
             d="M 0,0 V -39.933 L -33.874,-6.059 V -44.127" /></g></g></g></g></svg>